<svg width="70" height="70" viewBox="0 0 70 70" fill="none" xmlns="http://www.w3.org/2000/svg">
<g clip-path="url(#clip0_23_426)">
<path d="M69.898 45.0042L68.2734 31.8792C67.7892 26.2792 65.0913 22.3679 60.5209 20.5917L48.6559 15.5283C43.7763 13.6267 38.3163 14.6213 34.5188 18.025L23.2634 26.3608C20.3117 29.0384 17.9755 32.41 16.5872 35.9333L15.2047 38.4242C14.4055 40.4338 14.4988 42.9509 15.4497 45.1529C16.1263 46.7163 17.1617 47.9617 18.4159 48.7579L17.9288 49.9829C16.6863 53.1096 18.2205 56.665 21.3472 57.9075C22.0822 58.1992 22.8434 58.3363 23.593 58.3363C26.0226 58.3363 28.3238 56.8779 29.2717 54.4892L29.6888 53.4421L47.4922 60.6579L47.0984 61.6496C46.4976 63.1663 46.5209 64.8229 47.1655 66.3221C47.8101 67.8184 49.0001 68.9734 50.5138 69.5771C51.243 69.8658 52.0042 70.0117 52.7655 70.0117C53.5851 70.0117 54.4047 69.8425 55.1805 69.51C56.6767 68.8654 57.8317 67.6754 58.4326 66.1617L58.9021 64.9804C59.1822 65.0125 59.4622 65.03 59.7392 65.03C62.7872 65.03 65.6717 63.1983 66.8617 60.2058L68.1392 56.9858C69.6326 53.2233 70.2392 49.105 69.8892 45.0159L69.898 45.0042ZM36.3592 20.2825C38.4097 18.4479 41.0055 17.4883 43.6305 17.4883C44.9517 17.4883 46.2788 17.7304 47.5534 18.2234L59.4184 23.2867C62.9855 24.675 64.9863 27.6558 65.3713 32.1504L65.3772 32.2058L66.9988 45.3046V45.325L25.2613 28.4988L36.3592 20.2825ZM26.5622 53.4071C25.9147 55.0375 24.0626 55.8396 22.4263 55.1892C20.793 54.5417 19.9938 52.6867 20.6442 51.0533L21.0847 49.9479L26.988 52.3396L26.5622 53.4071ZM54.0284 66.8238C53.2438 67.1621 52.3863 67.1738 51.593 66.8588C50.8026 66.5467 50.1813 65.9429 49.843 65.1613C49.5076 64.3796 49.493 63.5163 49.808 62.7229L50.193 61.7488L56.0963 64.1404L55.723 65.0767C55.4109 65.8671 54.8072 66.4883 54.0255 66.8267L54.0284 66.8238ZM65.4355 55.8979L64.158 59.1179C63.2013 61.5329 60.4567 62.7317 58.0417 61.7808L20.5859 46.5996C19.5563 46.1942 18.6842 45.2667 18.1301 43.9863C17.4884 42.5046 17.4067 40.7838 17.8355 39.6725L19.218 37.1817C20.1542 34.8221 21.4901 32.6142 23.1001 30.7067C23.208 30.7913 30.7155 33.8421 30.7155 33.8421L29.0997 37.8234C28.7963 38.57 29.158 39.4188 29.9017 39.7221C30.0826 39.795 30.2663 39.83 30.4501 39.83C31.0247 39.83 31.5701 39.4859 31.8005 38.92L33.4192 34.9329L56.7059 44.3188L55.0551 48.3846C54.7517 49.1313 55.1105 49.98 55.8542 50.2833C56.0351 50.3563 56.2217 50.3913 56.4026 50.3913C56.9771 50.3913 57.5255 50.0471 57.753 49.4813L59.4067 45.4067C59.4067 45.4067 66.923 48.4138 67.0513 48.4283C66.923 50.9833 66.3805 53.5179 65.4384 55.8921L65.4355 55.8979ZM17.7597 7.21877L14.5834 4.57335V8.15793C14.5834 11.7017 11.6988 14.5863 8.15507 14.5863H4.57049L7.21882 17.7625C9.20798 20.1483 9.20798 23.6075 7.21882 25.9933L4.5734 29.1696H8.15798C9.8759 29.1696 11.4947 29.8375 12.708 31.0567C13.2767 31.6254 13.2767 32.55 12.708 33.1188C12.4222 33.4017 12.0488 33.5446 11.6755 33.5446C11.3022 33.5446 10.9288 33.4017 10.643 33.1158C9.9809 32.4509 9.09715 32.0863 8.15798 32.0863H1.4584C0.892568 32.0863 0.376318 31.7596 0.137151 31.2463C-0.104932 30.7359 -0.0261819 30.1292 0.335485 29.6946L4.9759 24.1267C6.06382 22.8259 6.06382 20.9329 4.9759 19.6321L0.338401 14.0583C-0.0232653 13.6238 -0.102015 13.0171 0.140068 12.5067C0.379235 11.9934 0.895485 11.6667 1.46132 11.6667H8.15507C10.0917 11.6667 11.6667 10.0917 11.6667 8.15502V1.45835C11.6667 0.892516 11.9934 0.376266 12.5067 0.137099C13.0142 -0.102068 13.6238 -0.0262342 14.0584 0.335432L19.6263 4.97585C20.9301 6.06377 22.8172 6.06377 24.1209 4.97585L29.6917 0.338349C30.1263 -0.0233176 30.7359 -0.0962343 31.2434 0.140016C31.7567 0.379182 32.0834 0.895432 32.0834 1.46127V8.15502C32.0834 9.09418 32.448 9.97793 33.113 10.64C33.6847 11.2088 33.6847 12.1333 33.113 12.705C32.5442 13.2738 31.6167 13.2738 31.0509 12.705C29.8347 11.4888 29.1638 9.87293 29.1638 8.15502V4.57043L25.9876 7.21877C23.6047 9.20793 20.1426 9.20793 17.7567 7.21877H17.7597Z" fill="#548EFF"/>
</g>
<defs>
<clipPath id="clip0_23_426">
<rect width="70" height="70" fill="white"/>
</clipPath>
</defs>
</svg>
