<svg width="70" height="70" viewBox="0 0 70 70" fill="none" xmlns="http://www.w3.org/2000/svg">
<g clip-path="url(#clip0_70_27)">
<path d="M67.6083 28.175C66.15 26.8625 64.2833 26.1916 62.3292 26.2791C60.375 26.3666 58.5667 27.2125 57.2542 28.6708L46.375 40.6291C45.4708 37.3916 42.4958 35.0291 38.9667 35.0291H7.29167C3.29583 35 0 38.2666 0 42.2916V62.7083C0 66.7333 3.26667 70 7.29167 70H40.0458L68.1625 38.4416C70.8167 35.4666 70.5833 30.8583 67.6375 28.1458L67.6083 28.175ZM65.975 36.5166L38.7333 67.0833H7.29167C4.87083 67.0833 2.91667 65.1291 2.91667 62.7083V42.2916C2.91667 39.8708 4.87083 37.9166 7.29167 37.9166H38.9667C41.6208 37.9166 43.75 40.075 43.75 42.7C43.75 45.0625 41.9708 47.1041 39.6667 47.425L23.1583 49.5833L23.5375 52.4708L40.075 50.3125C43.05 49.875 45.4417 47.7458 46.3458 45.0041L59.4708 30.5958C60.2583 29.7208 61.3375 29.225 62.5333 29.1666C63.6708 29.1375 64.8375 29.5166 65.7125 30.3041C67.4917 31.9375 67.6375 34.7083 66.0333 36.4875L65.975 36.5166Z" fill="#548EFF"/>
<path d="M34.6495 23.8927C33.2949 25.5512 31.5221 26.8096 29.518 27.5353C27.514 28.2609 25.3532 28.4269 23.2636 28.0156C21.1739 27.6043 19.233 26.6311 17.6456 25.1986C16.0581 23.7661 14.8831 21.9274 14.2445 19.8767H26.7082C27.0218 19.8767 27.3226 19.7509 27.5444 19.5269C27.7662 19.3029 27.8908 18.9992 27.8908 18.6825C27.8908 18.3658 27.7662 18.062 27.5444 17.8381C27.3226 17.6141 27.0218 17.4883 26.7082 17.4883H13.7596C13.6792 16.6942 13.6792 15.894 13.7596 15.0999H26.7082C27.0218 15.0999 27.3226 14.9741 27.5444 14.7502C27.7662 14.5262 27.8908 14.2225 27.8908 13.9057C27.8908 13.589 27.7662 13.2853 27.5444 13.0613C27.3226 12.8374 27.0218 12.7116 26.7082 12.7116H14.2445C14.8831 10.6608 16.0581 8.82217 17.6456 7.38967C19.233 5.95717 21.1739 4.98393 23.2636 4.57265C25.3532 4.16138 27.514 4.32733 29.518 5.05298C31.5221 5.77863 33.2949 7.03708 34.6495 8.69553C34.7485 8.81644 34.87 8.91649 35.0072 8.98996C35.1444 9.06344 35.2947 9.10891 35.4493 9.12377C35.6039 9.13863 35.7599 9.12259 35.9084 9.07657C36.0569 9.03055 36.1949 8.95544 36.3147 8.85555C36.4344 8.75565 36.5335 8.63292 36.6063 8.49436C36.679 8.35579 36.724 8.20412 36.7388 8.04798C36.7535 7.89185 36.7376 7.73432 36.692 7.58438C36.6464 7.43445 36.5721 7.29505 36.4731 7.17414C34.8088 5.1372 32.6189 3.60478 30.1457 2.74634C27.6726 1.88789 25.0124 1.73687 22.4596 2.30998C19.9067 2.88309 17.5605 4.158 15.6805 5.99372C13.8005 7.82943 12.4599 10.1544 11.8071 12.7116H10.1514C9.83773 12.7116 9.53692 12.8374 9.31513 13.0613C9.09335 13.2853 8.96875 13.589 8.96875 13.9057C8.96875 14.2225 9.09335 14.5262 9.31513 14.7502C9.53692 14.9741 9.83773 15.0999 10.1514 15.0999H11.3943C11.3612 15.4952 11.334 15.8905 11.334 16.2941C11.334 16.6978 11.3612 17.093 11.3943 17.4883H10.1514C9.83773 17.4883 9.53692 17.6141 9.31513 17.8381C9.09335 18.062 8.96875 18.3658 8.96875 18.6825C8.96875 18.9992 9.09335 19.3029 9.31513 19.5269C9.53692 19.7509 9.83773 19.8767 10.1514 19.8767H11.8071C12.4592 22.4351 13.7997 24.7615 15.6801 26.5983C17.5606 28.4351 19.9077 29.7107 22.4617 30.2839C25.0156 30.8571 27.6769 30.7056 30.1508 29.8461C32.6248 28.9866 34.815 27.4527 36.4791 25.4141C36.6788 25.1699 36.7744 24.8556 36.7447 24.5402C36.715 24.2249 36.5624 23.9344 36.3206 23.7327C36.0788 23.5309 35.7675 23.4345 35.4552 23.4645C35.1429 23.4945 34.8552 23.6485 34.6554 23.8927H34.6495Z" fill="#548EFF"/>
</g>
<defs>
<clipPath id="clip0_70_27">
<rect width="70" height="70" fill="white"/>
</clipPath>
</defs>
</svg>
