<svg width="120" height="120" viewBox="0 0 120 120" fill="none" xmlns="http://www.w3.org/2000/svg">
<g clip-path="url(#clip0_145_255)">
<path d="M60.0019 119.766C59.4498 119.766 58.8977 119.636 58.3933 119.376L57.3578 118.845C48.5751 114.341 35.3018 107.535 24.2917 93.0322C18.2629 85.0909 13.5672 75.6408 10.3354 64.9466C6.58722 52.5457 4.6875 38.0786 4.6875 21.9488C4.6875 20.7275 5.32105 19.5941 6.36108 18.9541C7.40112 18.3142 8.69934 18.2601 9.78882 18.8104C15.5356 21.7144 25.0214 21.5432 34.5447 18.3645C44.8151 14.9368 52.9688 8.82471 56.9147 1.59662C57.5427 0.444882 58.7686 -0.254581 60.0723 -0.23444C61.3843 -0.206974 62.5708 0.547421 63.1522 1.72387C66.7465 9.0014 74.6576 15.0549 84.8557 18.3334C94.2545 21.3546 104.038 21.5057 110.389 18.728C111.476 18.2519 112.729 18.3572 113.721 19.0063C114.715 19.6554 115.313 20.7623 115.313 21.9488C115.313 38.4136 113.385 53.1445 109.585 65.7321C106.297 76.6214 101.523 86.1841 95.3943 94.1537C85.0049 107.664 72.9364 114.3 61.4411 119.457C60.9833 119.663 60.4917 119.766 60.0019 119.766Z" fill="#FFF35C"/>
<path d="M60.0018 119.766C60.4916 119.766 60.9833 119.663 61.441 119.458C72.9364 114.3 85.0049 107.664 95.3943 94.1539C101.523 86.1842 106.297 76.6215 109.585 65.7322C113.385 53.1455 115.313 38.4138 115.313 21.9489C115.313 20.7624 114.715 19.6565 113.721 19.0064C112.729 18.3573 111.476 18.2529 110.389 18.7281C104.038 21.5058 94.2545 21.3548 84.8557 18.3335C74.6576 15.0559 66.7465 9.00154 63.1522 1.72401C62.5708 0.547559 61.3834 -0.206836 60.0723 -0.233386C60.0476 -0.234302 60.0238 -0.232471 60 -0.232471L60.0018 119.766Z" fill="#FFEB28"/>
<path d="M60.002 93.2027C42.5557 93.2027 28.3613 79.0083 28.3613 61.562C28.3613 44.1157 42.5557 29.9214 60.002 29.9214C77.4492 29.9214 91.6426 44.1157 91.6426 61.562C91.6426 79.0092 77.4492 93.2027 60.002 93.2027Z" fill="#B9E969"/>
<path d="M60.0713 29.9221V93.2016C77.4865 93.164 91.6423 78.9852 91.6423 61.5618C91.6423 44.1384 77.4865 29.9597 60.0713 29.9221Z" fill="#36A47C"/>
<path d="M84.6113 61.562C84.6113 75.1539 73.5939 86.1714 60.002 86.1714C46.411 86.1714 35.3926 75.1539 35.3926 61.562C35.3926 47.971 46.411 36.9526 60.002 36.9526C73.5939 36.9526 84.6113 47.971 84.6113 61.562Z" fill="white"/>
<path d="M60.0713 36.9534V86.1703C73.6312 86.1328 84.6111 75.13 84.6111 61.5618C84.6111 47.9937 73.6312 36.9909 60.0713 36.9534Z" fill="#C9DFF7"/>
<path d="M56.4771 73.0179C56.4533 73.0179 56.4295 73.017 56.4057 73.017C55.3235 72.9951 54.3128 72.4759 53.6637 71.6108L47.1323 62.8986C45.9677 61.345 46.2836 59.1413 47.8372 57.9767C49.3909 56.8122 51.5936 57.1271 52.7582 58.6808L56.5915 63.794L65.9262 52.3389C67.153 50.8338 69.3677 50.6077 70.8728 51.8345C72.3779 53.0603 72.6041 55.275 71.3773 56.7801L59.2017 71.7225C58.5333 72.5428 57.5327 73.0179 56.4771 73.0179Z" fill="#82A0D2"/>
<path d="M70.8727 51.8345C69.3676 50.6077 67.153 50.8338 65.9261 52.3389L60.0723 59.524V70.655L71.3772 56.7801C72.604 55.275 72.3779 53.0603 70.8727 51.8345Z" fill="#2D5078"/>
</g>
<defs>
<clipPath id="clip0_145_255">
<rect width="120" height="120" fill="white"/>
</clipPath>
</defs>
</svg>
