<svg width="226" height="54" viewBox="0 0 226 54" fill="none" xmlns="http://www.w3.org/2000/svg">
<path d="M78.64 13.72L85.56 35L92.48 13.72H99.8L89.96 42H81.12L71.32 13.72H78.64ZM112.863 19.4C115.076 19.4 117.049 19.8667 118.783 20.8C120.543 21.7067 121.916 23.0267 122.903 24.76C123.916 26.4933 124.423 28.52 124.423 30.84C124.423 33.16 123.916 35.1867 122.903 36.92C121.916 38.6533 120.543 39.9867 118.783 40.92C117.049 41.8267 115.076 42.28 112.863 42.28C110.649 42.28 108.663 41.8267 106.903 40.92C105.143 39.9867 103.756 38.6533 102.743 36.92C101.756 35.1867 101.263 33.16 101.263 30.84C101.263 28.52 101.756 26.4933 102.743 24.76C103.756 23.0267 105.143 21.7067 106.903 20.8C108.663 19.8667 110.649 19.4 112.863 19.4ZM112.863 25.32C111.556 25.32 110.449 25.8 109.543 26.76C108.663 27.6933 108.223 29.0533 108.223 30.84C108.223 32.6267 108.663 33.9867 109.543 34.92C110.449 35.8533 111.556 36.32 112.863 36.32C114.169 36.32 115.263 35.8533 116.143 34.92C117.023 33.9867 117.463 32.6267 117.463 30.84C117.463 29.0533 117.023 27.6933 116.143 26.76C115.263 25.8 114.169 25.32 112.863 25.32ZM127.329 13.4C127.329 12.36 127.703 11.5067 128.449 10.84C129.196 10.1467 130.183 9.8 131.409 9.8C132.636 9.8 133.623 10.1467 134.369 10.84C135.116 11.5067 135.489 12.36 135.489 13.4C135.489 14.4133 135.116 15.2667 134.369 15.96C133.623 16.6267 132.636 16.96 131.409 16.96C130.183 16.96 129.196 16.6267 128.449 15.96C127.703 15.2667 127.329 14.4133 127.329 13.4ZM134.809 19.68V42H127.969V19.68H134.809ZM146.372 23.88C147.225 22.52 148.319 21.44 149.652 20.64C151.012 19.84 152.479 19.44 154.052 19.44V26.76H152.092C150.279 26.76 148.865 27.1467 147.852 27.92C146.865 28.6933 146.372 30 146.372 31.84V42H139.532V19.68H146.372V23.88ZM167.355 19.4C169.568 19.4 171.541 19.8667 173.275 20.8C175.035 21.7067 176.408 23.0267 177.395 24.76C178.408 26.4933 178.915 28.52 178.915 30.84C178.915 33.16 178.408 35.1867 177.395 36.92C176.408 38.6533 175.035 39.9867 173.275 40.92C171.541 41.8267 169.568 42.28 167.355 42.28C165.141 42.28 163.155 41.8267 161.395 40.92C159.635 39.9867 158.248 38.6533 157.235 36.92C156.248 35.1867 155.755 33.16 155.755 30.84C155.755 28.52 156.248 26.4933 157.235 24.76C158.248 23.0267 159.635 21.7067 161.395 20.8C163.155 19.8667 165.141 19.4 167.355 19.4ZM167.355 25.32C166.048 25.32 164.941 25.8 164.035 26.76C163.155 27.6933 162.715 29.0533 162.715 30.84C162.715 32.6267 163.155 33.9867 164.035 34.92C164.941 35.8533 166.048 36.32 167.355 36.32C168.661 36.32 169.755 35.8533 170.635 34.92C171.515 33.9867 171.955 32.6267 171.955 30.84C171.955 29.0533 171.515 27.6933 170.635 26.76C169.755 25.8 168.661 25.32 167.355 25.32ZM195.102 36.12V42H192.022C189.408 42 187.368 41.36 185.902 40.08C184.462 38.7733 183.742 36.6267 183.742 33.64V25.44H180.742V19.68H183.742V14.2H190.582V19.68H195.062V25.44H190.582V33.76C190.582 34.64 190.755 35.2533 191.102 35.6C191.475 35.9467 192.088 36.12 192.942 36.12H195.102ZM209.386 19.4C211.599 19.4 213.573 19.8667 215.306 20.8C217.066 21.7067 218.439 23.0267 219.426 24.76C220.439 26.4933 220.946 28.52 220.946 30.84C220.946 33.16 220.439 35.1867 219.426 36.92C218.439 38.6533 217.066 39.9867 215.306 40.92C213.573 41.8267 211.599 42.28 209.386 42.28C207.173 42.28 205.186 41.8267 203.426 40.92C201.666 39.9867 200.279 38.6533 199.266 36.92C198.279 35.1867 197.786 33.16 197.786 30.84C197.786 28.52 198.279 26.4933 199.266 24.76C200.279 23.0267 201.666 21.7067 203.426 20.8C205.186 19.8667 207.173 19.4 209.386 19.4ZM209.386 25.32C208.079 25.32 206.973 25.8 206.066 26.76C205.186 27.6933 204.746 29.0533 204.746 30.84C204.746 32.6267 205.186 33.9867 206.066 34.92C206.973 35.8533 208.079 36.32 209.386 36.32C210.693 36.32 211.786 35.8533 212.666 34.92C213.546 33.9867 213.986 32.6267 213.986 30.84C213.986 29.0533 213.546 27.6933 212.666 26.76C211.786 25.8 210.693 25.32 209.386 25.32Z" fill="#020D03"/>
<g clip-path="url(#clip0_4026_309)">
<path fill-rule="evenodd" clip-rule="evenodd" d="M52.7934 23.3207V50H46.3883V45.8774H8.61165V50H2.20662V23.3207H0V19.2199H5.389L8.39233 10.1206C9.27856 7.43608 10.7556 5 13.6471 5H42.4674C45.3589 5 47.0239 7.38815 47.7222 10.1162L50.0452 19.2156H54.9955V23.3164H52.7934V23.3207ZM17.9081 37.6453H36.8278V41.9901H17.9081V37.6453ZM4.35059 27.5261C9.17114 27.6743 12.1208 29.6397 12.8772 33.7406H4.35059V27.5261ZM50.0407 27.5261C45.2201 27.6743 42.2705 29.6397 41.5141 33.7406H50.0407V27.5261ZM7.68962 19.2156H47.3104L45.614 11.5848C45.1485 9.49303 43.8102 7.68449 41.6081 7.68449H14.2065C12.0044 7.68449 10.8765 9.54096 10.2006 11.5848L7.68962 19.2156Z" fill="#90D994"/>
</g>
<g clip-path="url(#clip1_4026_309)">
<path fill-rule="evenodd" clip-rule="evenodd" d="M14 23.0445L19.5371 22.9761C21.6758 24.1264 23.5898 25.616 25.2378 27.4996C29.5005 20.9057 34.3979 15.503 39.7812 11H44C36.4731 18.8011 30.3306 27.1534 25.4185 36C22.7915 30.7454 19.1172 26.3221 14 23.0445Z" fill="#2377FF"/>
</g>
<defs>
<clipPath id="clip0_4026_309">
<rect width="55" height="45" fill="white" transform="translate(0 5)"/>
</clipPath>
<clipPath id="clip1_4026_309">
<rect width="30" height="25" fill="white" transform="translate(14 11)"/>
</clipPath>
</defs>
</svg>
