<svg width="70" height="70" viewBox="0 0 70 70" fill="none" xmlns="http://www.w3.org/2000/svg">
<g clip-path="url(#clip0_23_428)">
<path d="M23.3333 11.6667C26.5504 11.6667 29.1667 9.05042 29.1667 5.83333C29.1667 2.61625 26.5504 0 23.3333 0C20.1163 0 17.5 2.61625 17.5 5.83333C17.5 9.05042 20.1163 11.6667 23.3333 11.6667ZM23.3333 2.91667C24.9404 2.91667 26.25 4.22625 26.25 5.83333C26.25 7.44042 24.9404 8.75 23.3333 8.75C21.7262 8.75 20.4167 7.44042 20.4167 5.83333C20.4167 4.22625 21.7262 2.91667 23.3333 2.91667ZM35 20.4167C38.2171 20.4167 40.8333 17.8004 40.8333 14.5833C40.8333 11.3663 38.2171 8.75 35 8.75C31.7829 8.75 29.1667 11.3663 29.1667 14.5833C29.1667 17.8004 31.7829 20.4167 35 20.4167ZM35 11.6667C36.6071 11.6667 37.9167 12.9763 37.9167 14.5833C37.9167 16.1904 36.6071 17.5 35 17.5C33.3929 17.5 32.0833 16.1904 32.0833 14.5833C32.0833 12.9763 33.3929 11.6667 35 11.6667ZM46.6667 11.6667C49.8838 11.6667 52.5 9.05042 52.5 5.83333C52.5 2.61625 49.8838 0 46.6667 0C43.4496 0 40.8333 2.61625 40.8333 5.83333C40.8333 9.05042 43.4496 11.6667 46.6667 11.6667ZM46.6667 2.91667C48.2738 2.91667 49.5833 4.22625 49.5833 5.83333C49.5833 7.44042 48.2738 8.75 46.6667 8.75C45.0596 8.75 43.75 7.44042 43.75 5.83333C43.75 4.22625 45.0596 2.91667 46.6667 2.91667ZM70 18.9583V57.5488C70 59.3513 69.3321 61.0896 68.1188 62.4371L61.39 70H57.4729L65.9546 60.4829C66.6838 59.675 67.0833 58.6308 67.0833 57.5488V18.9583C67.0833 16.5463 65.1204 14.5833 62.7083 14.5833C60.2963 14.5833 58.3333 16.5463 58.3333 18.9583V45.2083H58.3129C58.3129 46.8708 57.7588 48.5333 56.63 49.8779L47.5942 59.2287L45.4971 57.2017L54.4629 47.9296C55.1192 47.145 55.44 46.1387 55.4167 45.1296V45.115C55.3904 44.1058 55.0229 43.0908 54.3025 42.2887C52.6983 40.5008 49.9362 40.3463 48.1396 41.9504L36.8871 52.3046C37.5317 53.41 37.9167 54.6613 37.9167 55.9621V70.0029H35V55.9621C35 54.7429 34.4837 53.5675 33.5883 52.7421L21.8458 41.9358C20.0696 40.3433 17.3017 40.495 15.6975 42.2858C14.2567 43.8929 14.2188 46.3517 15.6042 48.0025L24.5029 57.1988L22.4058 59.2258L13.44 49.9538C12.2762 48.5713 11.7075 46.8825 11.6958 45.2083H11.6667V18.9583C11.6667 16.5463 9.70375 14.5833 7.29167 14.5833C4.87958 14.5833 2.91667 16.5463 2.91667 18.9583V57.5488C2.91667 58.6308 3.31625 59.675 4.04542 60.4829L12.5271 70H8.61L1.88125 62.4371C0.667917 61.0896 0 59.3513 0 57.5488V18.9583C0 14.9392 3.2725 11.6667 7.29167 11.6667C10.2083 11.6667 12.7108 13.3992 13.8775 15.8783C14.875 15.0792 16.1233 14.5833 17.5 14.5833H23.3333C23.3333 15.5983 23.4996 16.5667 23.7504 17.5H17.5C15.89 17.5 14.5833 18.8067 14.5833 20.4167V39.375C17.3046 37.3363 21.1779 37.4238 23.8058 39.7746L35 50.0763L46.1796 39.7863C48.8192 37.4208 52.6954 37.3333 55.4167 39.3721V20.4167C55.4167 18.8067 54.11 17.5 52.5 17.5H46.2496C46.5004 16.5667 46.6667 15.5983 46.6667 14.5833H52.5C53.8767 14.5833 55.125 15.0792 56.1225 15.8783C57.2892 13.3992 59.7917 11.6667 62.7083 11.6667C66.7275 11.6667 70 14.9392 70 18.9583ZM43.75 34.3846V29.1667C43.75 27.5567 42.4433 26.25 40.8333 26.25H29.1667C27.5567 26.25 26.25 27.5567 26.25 29.1667V34.3758C25.3225 33.7488 24.3571 33.215 23.3333 32.8533V29.1667C23.3333 25.9438 25.9438 23.3333 29.1667 23.3333H40.8333C44.0563 23.3333 46.6667 25.9438 46.6667 29.1667V32.8679C45.6458 33.2296 44.6804 33.7633 43.75 34.3846Z" fill="#548EFF"/>
</g>
<defs>
<clipPath id="clip0_23_428">
<rect width="70" height="70" fill="white"/>
</clipPath>
</defs>
</svg>
