<svg width="224" height="39" viewBox="0 0 224 39" fill="none" xmlns="http://www.w3.org/2000/svg">
<path d="M54.832 31.32C53.1893 31.32 51.6747 31.032 50.288 30.456C48.9013 29.88 47.6853 29.08 46.64 28.056C45.616 27.0107 44.8267 25.784 44.272 24.376C43.7173 22.9467 43.44 21.4 43.44 19.736C43.44 18.0507 43.7173 16.5147 44.272 15.128C44.8267 13.72 45.616 12.4933 46.64 11.448C47.6853 10.4027 48.9013 9.592 50.288 9.016C51.6747 8.44 53.1893 8.152 54.832 8.152C56.496 8.152 58.0107 8.44 59.376 9.016C60.7627 9.592 61.968 10.4027 62.992 11.448C64.0373 12.4933 64.8373 13.72 65.392 15.128C65.9467 16.536 66.224 18.072 66.224 19.736C66.224 21.4 65.9467 22.936 65.392 24.344C64.8373 25.752 64.0373 26.9787 62.992 28.024C61.968 29.0693 60.7627 29.88 59.376 30.456C58.0107 31.032 56.496 31.32 54.832 31.32ZM54.832 26.776C55.7707 26.776 56.6347 26.6053 57.424 26.264C58.2347 25.9227 58.928 25.432 59.504 24.792C60.08 24.152 60.528 23.4053 60.848 22.552C61.1893 21.6987 61.36 20.76 61.36 19.736C61.36 18.712 61.1893 17.7733 60.848 16.92C60.528 16.0667 60.08 15.3307 59.504 14.712C58.928 14.072 58.2347 13.5813 57.424 13.24C56.6347 12.8773 55.7707 12.696 54.832 12.696C53.8933 12.696 53.0293 12.8773 52.24 13.24C51.4507 13.5813 50.7573 14.072 50.16 14.712C49.5627 15.3307 49.104 16.0667 48.784 16.92C48.4853 17.7733 48.336 18.712 48.336 19.736C48.336 20.76 48.4853 21.6987 48.784 22.552C49.104 23.4053 49.5627 24.152 50.16 24.792C50.7573 25.432 51.4507 25.9227 52.24 26.264C53.0293 26.6053 53.8933 26.776 54.832 26.776ZM71.5603 31V9.784H76.1042V31H71.5603ZM68.3923 18.136V14.072H79.5603V18.136H68.3923ZM84.154 31V9.784H88.698V31H84.154ZM80.986 18.136V14.072H92.154V18.136H80.986ZM102.832 31.32C101.104 31.32 99.5568 30.9467 98.1915 30.2C96.8475 29.432 95.7808 28.3867 94.9915 27.064C94.2235 25.7413 93.8395 24.2267 93.8395 22.52C93.8395 20.8133 94.2235 19.3093 94.9915 18.008C95.7808 16.6853 96.8475 15.64 98.1915 14.872C99.5568 14.104 101.104 13.72 102.832 13.72C104.538 13.72 106.064 14.104 107.408 14.872C108.773 15.64 109.84 16.6853 110.608 18.008C111.376 19.3093 111.76 20.8133 111.76 22.52C111.76 24.2267 111.376 25.7413 110.608 27.064C109.84 28.3867 108.773 29.432 107.408 30.2C106.064 30.9467 104.538 31.32 102.832 31.32ZM102.832 27.352C103.664 27.352 104.41 27.1493 105.072 26.744C105.733 26.3173 106.245 25.7413 106.608 25.016C106.992 24.2693 107.184 23.4373 107.184 22.52C107.184 21.5813 106.992 20.7493 106.608 20.024C106.245 19.2773 105.733 18.7013 105.072 18.296C104.41 17.8693 103.664 17.656 102.832 17.656C101.978 17.656 101.221 17.8693 100.56 18.296C99.8982 18.7227 99.3755 19.2987 98.9915 20.024C98.6075 20.7493 98.4262 21.5813 98.4475 22.52C98.4262 23.4373 98.6075 24.2693 98.9915 25.016C99.3755 25.7413 99.8982 26.3173 100.56 26.744C101.221 27.1493 101.978 27.352 102.832 27.352Z" fill="#548EFF"/>
<path d="M115.178 38.04V14.072H119.562L119.69 17.88L118.858 17.592C119.008 16.9093 119.37 16.28 119.946 15.704C120.544 15.128 121.28 14.6587 122.154 14.296C123.029 13.9333 123.946 13.752 124.906 13.752C126.378 13.752 127.68 14.136 128.81 14.904C129.962 15.6507 130.869 16.6853 131.53 18.008C132.213 19.3093 132.554 20.8133 132.554 22.52C132.554 24.2053 132.224 25.7093 131.562 27.032C130.901 28.3547 129.994 29.4 128.842 30.168C127.69 30.9147 126.378 31.288 124.906 31.288C123.925 31.288 122.986 31.1067 122.09 30.744C121.216 30.36 120.469 29.8587 119.85 29.24C119.232 28.6213 118.848 27.96 118.698 27.256L119.754 26.808V38.04H115.178ZM123.882 27.384C124.714 27.384 125.45 27.1813 126.09 26.776C126.73 26.3707 127.232 25.8053 127.594 25.08C127.957 24.3333 128.138 23.48 128.138 22.52C128.138 21.56 127.957 20.7173 127.594 19.992C127.232 19.2667 126.73 18.7013 126.09 18.296C125.472 17.8907 124.736 17.688 123.882 17.688C123.029 17.688 122.282 17.8907 121.642 18.296C121.002 18.68 120.501 19.2453 120.138 19.992C119.776 20.7173 119.594 21.56 119.594 22.52C119.594 23.48 119.776 24.3333 120.138 25.08C120.501 25.8053 121.002 26.3707 121.642 26.776C122.282 27.1813 123.029 27.384 123.882 27.384ZM144.023 31.32C142.188 31.32 140.588 30.9467 139.223 30.2C137.857 29.4533 136.791 28.4293 136.023 27.128C135.255 25.8267 134.871 24.3333 134.871 22.648C134.871 21.3467 135.084 20.152 135.511 19.064C135.937 17.976 136.535 17.0373 137.303 16.248C138.071 15.4373 138.977 14.8187 140.023 14.392C141.089 13.944 142.241 13.72 143.479 13.72C144.631 13.72 145.697 13.9333 146.679 14.36C147.66 14.7653 148.503 15.352 149.207 16.12C149.932 16.8667 150.487 17.752 150.871 18.776C151.255 19.8 151.425 20.92 151.383 22.136L151.351 23.544H137.751L137.015 20.76H147.607L147.095 21.336V20.632C147.052 20.056 146.86 19.5333 146.519 19.064C146.199 18.5947 145.783 18.232 145.271 17.976C144.759 17.72 144.183 17.592 143.543 17.592C142.604 17.592 141.804 17.7733 141.143 18.136C140.503 18.4987 140.012 19.032 139.671 19.736C139.329 20.44 139.159 21.2933 139.159 22.296C139.159 23.32 139.372 24.2053 139.799 24.952C140.247 25.6987 140.865 26.2853 141.655 26.712C142.465 27.1173 143.415 27.32 144.503 27.32C145.249 27.32 145.932 27.2027 146.551 26.968C147.169 26.7333 147.831 26.328 148.535 25.752L150.711 28.792C150.092 29.3467 149.409 29.816 148.663 30.2C147.916 30.5627 147.148 30.84 146.359 31.032C145.569 31.224 144.791 31.32 144.023 31.32ZM162.773 31.32C160.938 31.32 159.338 30.9467 157.973 30.2C156.607 29.4533 155.541 28.4293 154.773 27.128C154.005 25.8267 153.621 24.3333 153.621 22.648C153.621 21.3467 153.834 20.152 154.261 19.064C154.687 17.976 155.285 17.0373 156.053 16.248C156.821 15.4373 157.727 14.8187 158.773 14.392C159.839 13.944 160.991 13.72 162.229 13.72C163.381 13.72 164.447 13.9333 165.429 14.36C166.41 14.7653 167.253 15.352 167.957 16.12C168.682 16.8667 169.237 17.752 169.621 18.776C170.005 19.8 170.175 20.92 170.133 22.136L170.101 23.544H156.501L155.765 20.76H166.357L165.845 21.336V20.632C165.802 20.056 165.61 19.5333 165.269 19.064C164.949 18.5947 164.533 18.232 164.021 17.976C163.509 17.72 162.933 17.592 162.293 17.592C161.354 17.592 160.554 17.7733 159.893 18.136C159.253 18.4987 158.762 19.032 158.421 19.736C158.079 20.44 157.909 21.2933 157.909 22.296C157.909 23.32 158.122 24.2053 158.549 24.952C158.997 25.6987 159.615 26.2853 160.405 26.712C161.215 27.1173 162.165 27.32 163.253 27.32C163.999 27.32 164.682 27.2027 165.301 26.968C165.919 26.7333 166.581 26.328 167.285 25.752L169.461 28.792C168.842 29.3467 168.159 29.816 167.413 30.2C166.666 30.5627 165.898 30.84 165.109 31.032C164.319 31.224 163.541 31.32 162.773 31.32ZM177.811 25.912L176.467 22.168L184.467 14.072H190.451L177.811 25.912ZM173.491 31V7.32H178.035V31H173.491ZM184.947 31L178.867 23.352L182.067 20.792L190.419 31H184.947Z" fill="#2A317F"/>
<g clip-path="url(#clip0_211_34)">
<path d="M17.9999 37.8857C17.4192 37.8857 16.8384 37.7826 16.2856 37.5763C14.325 36.8441 10.5439 35.0776 7.24674 31.4731C5.40356 29.4583 3.95323 27.1299 2.93553 24.5527C1.73406 21.5099 1.125 18.0859 1.125 14.3757V9.73786C1.125 8.74926 1.41472 7.79307 1.96259 6.97235C2.51047 6.15185 3.2806 5.52034 4.19019 5.1463C9.1403 3.1093 14.6908 1.67576 16.8475 1.15385C17.6023 0.971176 18.361 1.43851 18.5426 2.19746C18.7242 2.95642 18.2596 3.71972 17.505 3.90239C15.411 4.40909 10.0257 5.79956 5.25459 7.76284C4.45354 8.09252 3.93593 8.86778 3.93593 9.73786V14.3757C3.93593 17.7269 4.4784 20.7999 5.54799 23.5091C6.43833 25.764 7.70575 27.7995 9.31543 29.559C12.215 32.7287 15.5401 34.2821 17.2641 34.926C17.7387 35.1032 18.2617 35.1032 18.7365 34.926C20.4603 34.2823 23.7854 32.7287 26.685 29.5592C28.2945 27.7997 29.5621 25.7642 30.4524 23.5093C31.5222 20.8001 32.0645 17.7271 32.0645 14.376V9.73808C32.0645 8.868 31.5469 8.09273 30.7458 7.76306C30.0628 7.48209 29.3366 7.20026 28.5762 6.92168L19.2669 26.3959C19.076 26.7952 18.7101 27.0814 18.2782 27.169C17.8464 27.2567 17.3986 27.1355 17.0689 26.8419L10.316 20.8308C9.73487 20.3134 9.6806 19.4201 10.195 18.8355C10.7093 18.251 11.5975 18.1964 12.1787 18.7137L17.5392 23.4856L26.5897 4.55283C26.8738 3.95828 27.5289 3.64056 28.1684 3.78714C28.2274 3.80062 28.2852 3.8178 28.3407 3.83846C29.574 4.26665 30.7409 4.7068 31.8098 5.14673C32.7192 5.52099 33.4895 6.15229 34.0374 6.97279C34.5853 7.7935 34.875 8.7497 34.875 9.73829V14.3762C34.875 18.0864 34.2659 21.5103 33.0645 24.5531C32.0468 27.1303 30.5964 29.4587 28.7533 31.4735C25.4561 35.078 21.675 36.8445 19.7146 37.5767C19.1618 37.7831 18.5808 37.8857 17.9999 37.8857Z" fill="#548EFF" stroke="#548EFF"/>
</g>
<defs>
<clipPath id="clip0_211_34">
<rect width="36" height="39" fill="white"/>
</clipPath>
</defs>
</svg>
